<svg width="52" height="52" viewBox="0 0 52 52" fill="none" xmlns="http://www.w3.org/2000/svg">
<path d="M8.12503 26.0001C8.12454 22.8621 8.95012 19.7793 10.5188 17.0616C12.0874 14.3438 14.3439 12.0869 17.0613 10.5178C19.7787 8.94857 22.8614 8.12238 25.9993 8.12226C29.1373 8.12214 32.22 8.94808 34.9375 10.5171C35.3106 10.7291 35.7523 10.7851 36.1665 10.6726C36.5806 10.5602 36.9334 10.2886 37.148 9.91694C37.3625 9.54532 37.4214 9.10392 37.3117 8.68906C37.202 8.27421 36.9327 7.91958 36.5625 7.70256C32.5353 5.37745 27.8534 4.44613 23.243 5.05303C18.6326 5.65993 14.3512 7.77114 11.0629 11.0592C7.77457 14.3473 5.66309 18.6286 5.05589 23.239C4.44869 27.8494 5.37971 32.5313 7.70457 36.5587C10.0294 40.586 13.6182 43.7337 17.9143 45.5136C22.2104 47.2936 26.9737 47.6062 31.4656 46.4031C35.9575 45.1999 39.9269 42.5483 42.7582 38.8593C45.5895 35.1704 47.1244 30.6503 47.125 26.0001C47.125 25.5691 46.9538 25.1558 46.6491 24.851C46.3443 24.5463 45.931 24.3751 45.5 24.3751C45.0691 24.3751 44.6557 24.5463 44.351 24.851C44.0462 25.1558 43.875 25.5691 43.875 26.0001C43.875 30.7408 41.9918 35.2874 38.6396 38.6396C35.2874 41.9918 30.7408 43.8751 26 43.8751C21.2593 43.8751 16.7127 41.9918 13.3605 38.6396C10.0083 35.2874 8.12503 30.7408 8.12503 26.0001Z" fill="#E72847"/>
<path d="M49.9006 10.9006C50.0517 10.7495 50.1715 10.5701 50.2533 10.3727C50.3351 10.1753 50.3772 9.96377 50.3772 9.7501C50.3772 9.53643 50.3351 9.32486 50.2533 9.12745C50.1715 8.93005 50.0517 8.75068 49.9006 8.5996C49.7495 8.44851 49.5701 8.32867 49.3727 8.2469C49.1753 8.16513 48.9638 8.12305 48.7501 8.12305C48.5364 8.12305 48.3249 8.16513 48.1275 8.2469C47.93 8.32867 47.7507 8.44851 47.5996 8.5996L26.0001 30.2023L17.4006 21.5996C17.2495 21.4485 17.0702 21.3287 16.8727 21.2469C16.6753 21.1651 16.4638 21.123 16.2501 21.123C16.0364 21.123 15.8249 21.1651 15.6275 21.2469C15.4301 21.3287 15.2507 21.4485 15.0996 21.5996C14.9485 21.7507 14.8287 21.93 14.7469 22.1275C14.6651 22.3249 14.623 22.5364 14.623 22.7501C14.623 22.9638 14.6651 23.1753 14.7469 23.3727C14.8287 23.5701 14.9485 23.7495 15.0996 23.9006L24.8496 33.6506C25.0005 33.8019 25.1799 33.922 25.3773 34.0039C25.5747 34.0858 25.7864 34.128 26.0001 34.128C26.2138 34.128 26.4255 34.0858 26.6229 34.0039C26.8203 33.922 26.9997 33.8019 27.1506 33.6506L49.9006 10.9006Z" fill="#E72847"/>
</svg>
